<svg xmlns="http://www.w3.org/2000/svg" viewBox="39 40 22 20" width="22" height="20" fill="#ffffff">
  <path d="M52.0118 40.8075C51.6213 40.417 50.9881 40.417 50.5976 40.8075C50.2071 41.1981 50.2071 41.8312 50.5976 42.2218L57.3763 49.0005H40.209C39.6567 49.0005 39.209 49.4482 39.209 50.0005C39.209 50.5528 39.6567 51.0005 40.209 51.0005H57.3752L50.5976 57.7781C50.2071 58.1686 50.2071 58.8018 50.5976 59.1923C50.9881 59.5828 51.6213 59.5828 52.0118 59.1923L60.4704 50.7337C60.6672 50.5511 60.7904 50.2902 60.7904 50.0005C60.7904 49.8116 60.738 49.6349 60.647 49.4842C60.6059 49.416 60.5559 49.3517 60.4971 49.2928L52.0118 40.8075Z"/>
</svg>
