<svg xmlns="http://www.w3.org/2000/svg" viewBox="29 29 14 14" width="14" height="14" fill="#ffffff">
  <path d="M36 37.4L31.1 42.3C30.9167 42.4833 30.6834 42.575 30.4 42.575C30.1167 42.575 29.8834 42.4833 29.7 42.3C29.5167 42.1167 29.425 41.8833 29.425 41.6C29.425 41.3167 29.5167 41.0833 29.7 40.9L34.6 36L29.7 31.1C29.5167 30.9167 29.425 30.6833 29.425 30.4C29.425 30.1167 29.5167 29.8833 29.7 29.7C29.8834 29.5167 30.1167 29.425 30.4 29.425C30.6834 29.425 30.9167 29.5167 31.1 29.7L36 34.6L40.9 29.7C41.0834 29.5167 41.3167 29.425 41.6 29.425C41.8834 29.425 42.1167 29.5167 42.3 29.7C42.4834 29.8833 42.575 30.1167 42.575 30.4C42.575 30.6833 42.4834 30.9167 42.3 31.1L37.4 36L42.3 40.9C42.4834 41.0833 42.575 41.3167 42.575 41.6C42.575 41.8833 42.4834 42.1167 42.3 42.3C42.1167 42.4833 41.8834 42.575 41.6 42.575C41.3167 42.575 41.0834 42.4833 40.9 42.3L36 37.4Z"/>
</svg>
